<svg width="17" height="25" viewBox="0 0 17 25" fill="none" xmlns="http://www.w3.org/2000/svg">
<path d="M6.17627 9.55859L-0.000198364 9.5586L-0.000197914 14.7057L6.17627 14.7057L6.17627 9.55859Z" fill="url(#paint0_linear_196_3286)"/>
<rect width="5.88235" height="5.14706" transform="matrix(-1 8.74228e-08 8.74228e-08 1 11.0293 4.41162)" fill="url(#paint1_linear_196_3286)"/>
<rect width="5.88235" height="5.14706" transform="matrix(-1 8.74228e-08 8.74228e-08 1 16.9116 0)" fill="url(#paint2_linear_196_3286)"/>
<rect width="5.88235" height="5.14706" transform="matrix(-1 8.74228e-08 8.74228e-08 1 11.0293 14.7061)" fill="url(#paint3_linear_196_3286)"/>
<rect width="5.88235" height="5.14706" transform="matrix(-1 8.74228e-08 8.74228e-08 1 16.9116 19.853)" fill="url(#paint4_linear_196_3286)"/>
<defs>
<linearGradient id="paint0_linear_196_3286" x1="-0.000198576" y1="10.336" x2="1.65492" y2="16.1037" gradientUnits="userSpaceOnUse">
<stop stop-color="#FBBBFF"/>
<stop offset="1" stop-color="#FE35FE"/>
</linearGradient>
<linearGradient id="paint1_linear_196_3286" x1="5.88235" y1="0.77742" x2="4.15793" y2="6.50043" gradientUnits="userSpaceOnUse">
<stop stop-color="#FBBBFF"/>
<stop offset="1" stop-color="#FE35FE"/>
</linearGradient>
<linearGradient id="paint2_linear_196_3286" x1="5.88235" y1="0.77742" x2="4.15793" y2="6.50043" gradientUnits="userSpaceOnUse">
<stop stop-color="#FBBBFF"/>
<stop offset="1" stop-color="#FE35FE"/>
</linearGradient>
<linearGradient id="paint3_linear_196_3286" x1="5.88235" y1="0.77742" x2="4.15793" y2="6.50043" gradientUnits="userSpaceOnUse">
<stop stop-color="#FBBBFF"/>
<stop offset="1" stop-color="#FE35FE"/>
</linearGradient>
<linearGradient id="paint4_linear_196_3286" x1="5.88235" y1="0.77742" x2="4.15793" y2="6.50043" gradientUnits="userSpaceOnUse">
<stop stop-color="#FBBBFF"/>
<stop offset="1" stop-color="#FE35FE"/>
</linearGradient>
</defs>
</svg>
