<svg 
  width="2000" 
  height="755" 
  viewBox="0 0 2000 755" 
  fill="none" 
  xmlns="http://www.w3.org/2000/svg"
>
  <mask id="path-1-inside-1_196_3385" fill="white">
    <path 
      fillRule="evenodd" 
      clipRule="evenodd" 
      d="M0 749C0 752.314 2.68628 755 6 755H1318C1321.31 755 1324 752.314 1324 749V6C1324 2.68628 1321.31 0 1318 0H158.25C155.604 0 153.271 1.73297 152.506 4.26581L140.288 44.7342C139.523 47.267 137.19 49 134.544 49H6C2.68628 49 0 51.6863 0 55V749Z"
    />
  </mask>
  <path 
    fillRule="evenodd" 
    clipRule="evenodd" 
    d="M0 749C0 752.314 2.68628 755 6 755H1318C1321.31 755 1324 752.314 1324 749V6C1324 2.68628 1321.31 0 1318 0H158.25C155.604 0 153.271 1.73297 152.506 4.26581L140.288 44.7342C139.523 47.267 137.19 49 134.544 49H6C2.68628 49 0 51.6863 0 55V749Z" 
    fill="url(#paint0_linear_196_3385)" 
    fillOpacity="0.1"
  />
  <path 
    d="M140.288 44.7342L142.203 45.3123L140.288 44.7342ZM152.506 4.26581L150.591 3.68774L152.506 4.26581ZM1318 753H6V757H1318V753ZM1322 6V749H1326V6H1322ZM158.25 2H1318V-2H158.25V2ZM142.203 45.3123L154.421 4.84387L150.591 3.68774L138.373 44.1561L142.203 45.3123ZM6 51H134.544V47H6V51ZM2 749V55H-2V749H2ZM6 47C1.58167 47 -2 50.5817 -2 55H2C2 52.7909 3.79089 51 6 51V47ZM138.373 44.1561C137.864 45.8447 136.308 47 134.544 47V51C138.072 51 141.183 48.6893 142.203 45.3123L138.373 44.1561ZM158.25 -2C154.722 -2 151.611 0.310669 150.591 3.68774L154.421 4.84387C154.93 3.15533 156.486 2 158.25 2V-2ZM1326 6C1326 1.58173 1322.42 -2 1318 -2V2C1320.21 2 1322 3.79089 1322 6H1326ZM6 753C3.79089 753 2 751.209 2 749H-2C-2 753.418 1.58179 757 6 757V753ZM1318 757C1322.42 757 1326 753.418 1326 749H1322C1322 751.209 1320.21 753 1318 753V757Z" 
    fill="#FA8BFF" 
    mask="url(#path-1-inside-1_196_3385)"
  />
  <defs>
    <linearGradient 
      id="paint0_linear_196_3385" 
      x1="5.54558" 
      y1="793.199" 
      x2="406.212" 
      y2="793.199" 
      gradientUnits="userSpaceOnUse"
    >
      <stop stopColor="#FA8BFF"/>
      <stop offset="1" stopColor="#965499"/>
    </linearGradient>
  </defs>
</svg>