<svg width="199" height="27" viewBox="0 0 199 27" fill="none" xmlns="http://www.w3.org/2000/svg">
<path d="M22.22 26L20.684 21.968H11.148L9.612 26H0.459999L9.74 3.6H22.092L31.372 26H22.22ZM13.324 16.208H18.508L15.916 9.36L13.324 16.208ZM41.31 3.6V26H32.99V3.6H41.31ZM60.5037 6.48C64.8237 6.48 69.7197 7.824 69.7197 14.768V26H62.0397V17.904C62.0397 14.608 60.8557 13.2 57.3997 13.2C55.1277 13.2 52.7277 14.192 51.2237 15.632V26H43.5437V6.8H51.2237V9.36C53.5277 7.76 56.4717 6.48 60.5037 6.48ZM71.9725 0.4H79.6525V5.52H71.9725V0.4ZM71.9725 6.8H79.6525V26H71.9725V6.8ZM114.797 6.48C118.157 6.48 122.733 7.824 122.733 14.448V26H115.053V17.904C115.053 14.608 114.189 13.2 111.373 13.2C109.421 13.2 107.789 14.032 106.157 15.632V26H98.4772V17.904C98.4772 14.608 97.6132 13.2 94.7972 13.2C92.8452 13.2 91.2132 14.032 89.5812 15.632V26H81.9012V6.8H89.5812V10C91.2772 8.4 93.5492 6.48 98.2212 6.48C100.621 6.48 103.661 7.184 105.165 10C107.181 8.08 110.125 6.48 114.797 6.48ZM137.474 6.48C145.346 6.48 149.826 9.168 149.89 16.496V26H142.21V23.664C139.234 25.84 135.906 26.32 132.578 26.32C128.194 26.32 124.354 24.752 124.354 20.592C124.354 15.6 130.114 14.288 135.714 14.288C138.402 14.288 140.45 14.64 142.21 15.28C142.21 12.976 139.778 12.88 137.218 12.88C134.754 12.88 131.938 13.104 128.418 13.872L125.922 8.432C129.762 7.184 133.922 6.48 137.474 6.48ZM142.21 19.728V18.928C140.994 18.608 139.33 18.448 137.122 18.448C133.57 18.448 132.034 18.768 132.034 19.984C132.034 21.04 132.93 21.2 134.882 21.2C137.474 21.2 140.29 20.56 142.21 19.728ZM170.893 13.2H163.053V17.168C163.053 18.992 163.757 19.92 165.997 19.92C167.725 19.92 168.685 19.92 170.893 19.6V25.84C169.069 26.16 166.797 26.32 164.269 26.32C158.317 26.32 155.373 24.496 155.373 20.336V13.2H151.501V6.8H155.373V3.6L163.053 1.68V6.8H170.893V13.2ZM185.229 20.24C188.013 20.24 189.133 20.048 190.701 18.8H198.221C197.261 23.888 193.133 26.32 185.229 26.32C177.709 26.32 172.493 23.504 172.493 16.4C172.493 9.296 177.709 6.48 185.549 6.48C193.453 6.48 198.541 9.296 198.541 17.68H180.333C180.973 19.728 183.117 20.24 185.229 20.24ZM185.517 11.92C183.469 11.92 181.549 12.112 180.685 13.84H190.349C189.485 12.112 187.565 11.92 185.517 11.92Z" fill="url(#paint0_linear_196_149)"/>
<defs>
<linearGradient id="paint0_linear_196_149" x1="0" y1="16" x2="199" y2="16" gradientUnits="userSpaceOnUse">
<stop offset="0.4" stop-color="white"/>
<stop offset="1" stop-color="#999999"/>
</linearGradient>
</defs>
</svg>
