<svg width="202" height="23" viewBox="0 0 202 23" fill="none" xmlns="http://www.w3.org/2000/svg">
<path d="M22.3294 23L20.7934 18.968H11.2574L9.72137 23H0.569374L9.84937 0.599998H22.2014L31.4814 23H22.3294ZM13.4334 13.208H18.6174L16.0254 6.36L13.4334 13.208ZM41.4194 0.599998V23H33.0994V0.599998H41.4194ZM64.1971 0.599998H72.5171V23H61.6371L51.9731 9.784V23H43.6531V0.599998H54.5331L64.1971 13.816V0.599998ZM83.0894 0.599998V23H74.7694V0.599998H83.0894ZM119.627 0.599998V23H111.307V12.344L105.195 23H99.7551L93.6431 12.344V23H85.3231V0.599998H95.5631L102.475 13.4L109.387 0.599998H119.627ZM143.004 23L141.468 18.968H131.932L130.396 23H121.244L130.524 0.599998H142.876L152.156 23H143.004ZM134.108 13.208H139.292L136.7 6.36L134.108 13.208ZM175.849 0.599998V7.64H166.249V23H157.929V7.64H148.329V0.599998H175.849ZM201.446 7H186.086V9.08H201.446V14.52H186.086V16.6H201.446V23H177.766V0.599998H201.446V7Z" fill="url(#paint0_linear_419_83)"/>
<defs>
<linearGradient id="paint0_linear_419_83" x1="0" y1="13" x2="202" y2="13" gradientUnits="userSpaceOnUse">
<stop offset="0.4" stop-color="white"/>
<stop offset="1" stop-color="#999999"/>
</linearGradient>
</defs>
</svg>
