<svg width="1356" height="286" viewBox="0 0 1356 286" fill="none" xmlns="http://www.w3.org/2000/svg">
<mask id="path-1-inside-1_300_52" fill="white">
<path fill-rule="evenodd" clip-rule="evenodd" d="M0 276C0 281.523 4.47717 286 10 286H1346C1351.52 286 1356 281.523 1356 276V59.5C1356 53.9771 1351.52 49.5 1346 49.5H1110.74C1106.92 49.5 1103.44 47.3253 1101.76 43.8953L1083.02 5.60464C1081.34 2.17468 1077.86 0 1074.04 0H10C4.47717 0 0 4.47714 0 10V276Z"/>
</mask>
<path fill-rule="evenodd" clip-rule="evenodd" d="M0 276C0 281.523 4.47717 286 10 286H1346C1351.52 286 1356 281.523 1356 276V59.5C1356 53.9771 1351.52 49.5 1346 49.5H1110.74C1106.92 49.5 1103.44 47.3253 1101.76 43.8953L1083.02 5.60464C1081.34 2.17468 1077.86 0 1074.04 0H10C4.47717 0 0 4.47714 0 10V276Z" fill="url(#paint0_linear_300_52)" fill-opacity="0.2"/>
<path d="M1083.02 5.60464L1081.23 6.48373L1083.02 5.60464ZM1101.76 43.8953L1099.96 44.7744L1101.76 43.8953ZM1346 284H10V288H1346V284ZM1354 59.5V276H1358V59.5H1354ZM1346 47.5H1110.74V51.5H1346V47.5ZM1103.56 43.0163L1084.82 4.72559L1081.23 6.48373L1099.96 44.7744L1103.56 43.0163ZM10 2H1074.04V-2H10V2ZM2 276V10H-2V276H2ZM10 -2C3.37256 -2 -2 3.37259 -2 10H2C2 5.58173 5.58167 2 10 2V-2ZM1084.82 4.72559C1082.8 0.609619 1078.62 -2 1074.04 -2V2C1077.1 2 1079.88 3.73975 1081.23 6.48373L1084.82 4.72559ZM1110.74 47.5C1107.69 47.5 1104.9 45.7602 1103.56 43.0163L1099.96 44.7744C1101.98 48.8904 1106.16 51.5 1110.74 51.5V47.5ZM1358 59.5C1358 52.8726 1352.63 47.5 1346 47.5V51.5C1350.42 51.5 1354 55.0817 1354 59.5H1358ZM10 284C5.58179 284 2 280.418 2 276H-2C-2 282.627 3.37256 288 10 288V284ZM1346 288C1352.63 288 1358 282.627 1358 276H1354C1354 280.418 1350.42 284 1346 284V288Z" fill="#FA8BFF" mask="url(#path-1-inside-1_300_52)"/>
<path d="M1249 36H1127.5L1109 0H1224.16L1249 36Z" fill="#FA8BFF"/>
<defs>
<linearGradient id="paint0_linear_300_52" x1="0" y1="143" x2="1356" y2="143" gradientUnits="userSpaceOnUse">
<stop stop-color="#FA8BFF"/>
<stop offset="1" stop-color="#965499"/>
</linearGradient>
</defs>
</svg>
