<svg width="264" height="60" viewBox="0 0 264 60" fill="none" xmlns="http://www.w3.org/2000/svg">
<path fill-rule="evenodd" clip-rule="evenodd" d="M0 0.839844H238.181L259 23.5382V59.7767H16.2788L0 42.0288V0.839844Z" fill="white"/>
<path d="M58.1739 30.8V37.8C56.6606 38.0467 55.2506 38.17 53.9439 38.17C50.7906 38.17 48.4306 37.54 46.8639 36.28C45.2972 35.0133 44.5106 33.14 44.5039 30.66C44.5039 29.0333 44.8639 27.65 45.5839 26.51C46.3039 25.3633 47.3706 24.4933 48.7839 23.9C50.1972 23.3067 51.9239 23.01 53.9639 23.01C55.2306 23.01 56.4572 23.1367 57.6439 23.39V26.23C56.5306 25.99 55.3906 25.87 54.2239 25.87C52.1639 25.8767 50.6406 26.2733 49.6539 27.06C48.6739 27.8467 48.1839 29.0633 48.1839 30.71C48.1972 33.79 50.0506 35.33 53.7439 35.33C54.1239 35.33 54.4972 35.32 54.8639 35.3V30.8H58.1739ZM66.7944 35.35H75.1544V38H63.2944V23.2H75.0544V25.85H66.7944V29.11H74.0044V31.76H66.7944V35.35ZM83.4327 38V25.98H78.1827V23.2H92.2227V25.98H86.9727V38H83.4327ZM107.998 38.19C106.285 38.19 104.702 37.9633 103.248 37.51V34.73C103.922 34.9567 104.702 35.1367 105.588 35.27C106.475 35.3967 107.288 35.46 108.028 35.46C109.102 35.46 109.868 35.3167 110.328 35.03C110.788 34.7433 111.018 34.32 111.018 33.76C111.018 33.4467 110.948 33.19 110.808 32.99C110.668 32.79 110.432 32.62 110.098 32.48C109.765 32.34 109.298 32.2133 108.698 32.1L107.478 31.86C105.872 31.5467 104.705 31.0433 103.978 30.35C103.258 29.65 102.898 28.7167 102.898 27.55C102.898 26.09 103.468 24.97 104.608 24.19C105.755 23.4033 107.452 23.01 109.698 23.01C111.185 23.01 112.525 23.17 113.718 23.49V26.28C113.178 26.1133 112.558 25.9833 111.858 25.89C111.165 25.79 110.472 25.74 109.778 25.74C108.565 25.74 107.695 25.8867 107.168 26.18C106.648 26.4667 106.388 26.8833 106.388 27.43C106.388 27.7233 106.448 27.97 106.568 28.17C106.688 28.3633 106.892 28.5267 107.178 28.66C107.472 28.7933 107.878 28.9133 108.398 29.02L109.628 29.26C110.802 29.4867 111.745 29.7967 112.458 30.19C113.178 30.5767 113.698 31.05 114.018 31.61C114.345 32.1633 114.508 32.82 114.508 33.58C114.508 34.5333 114.248 35.3567 113.728 36.05C113.208 36.7433 112.458 37.2733 111.478 37.64C110.505 38.0067 109.345 38.19 107.998 38.19ZM121.933 38V25.98H116.683V23.2H130.723V25.98H125.473V38H121.933ZM143.785 38L142.375 34.08H135.995L134.585 38H131.135L136.655 23.2H141.745L147.275 38H143.785ZM136.945 31.43H141.425L139.185 25.2L136.945 31.43ZM160.616 38L156.506 32.61H156.386C155.906 32.61 155.292 32.5867 154.546 32.54V38H151.076V23.61C151.829 23.4367 152.672 23.2967 153.606 23.19C154.539 23.0767 155.426 23.02 156.266 23.02C158.579 23.02 160.309 23.4067 161.456 24.18C162.609 24.9467 163.186 26.15 163.186 27.79C163.186 28.85 162.912 29.7433 162.366 30.47C161.819 31.19 161.026 31.73 159.986 32.09L164.536 38H160.616ZM154.546 30C155.246 30.0733 155.909 30.11 156.536 30.11C157.696 30.11 158.546 29.9267 159.086 29.56C159.626 29.1933 159.896 28.6067 159.896 27.8C159.896 26.98 159.629 26.39 159.096 26.03C158.569 25.67 157.729 25.49 156.576 25.49C155.922 25.49 155.246 25.5533 154.546 25.68V30ZM170.96 38V25.98H165.71V23.2H179.75V25.98H174.5V38H170.96ZM187.013 35.35H195.373V38H183.513V23.2H195.273V25.85H187.013V29.11H194.223V31.76H187.013V35.35ZM204.519 38.13C202.879 38.13 201.322 38.0367 199.849 37.85V23.61C200.596 23.4367 201.466 23.3033 202.459 23.21C203.459 23.11 204.412 23.06 205.319 23.06C208.352 23.06 210.636 23.6833 212.169 24.93C213.709 26.17 214.479 28.06 214.479 30.6C214.479 32.36 214.112 33.7933 213.379 34.9C212.652 36.0067 211.556 36.8233 210.089 37.35C208.629 37.87 206.772 38.13 204.519 38.13ZM205.439 35.33C206.692 35.33 207.716 35.1633 208.509 34.83C209.309 34.4967 209.902 33.98 210.289 33.28C210.676 32.58 210.869 31.6767 210.869 30.57C210.869 28.95 210.426 27.7567 209.539 26.99C208.652 26.2233 207.292 25.84 205.459 25.84C204.799 25.84 204.109 25.9 203.389 26.02V35.24C203.896 35.3 204.579 35.33 205.439 35.33Z" fill="black"/>
<path d="M6.3623 16.8398L6.3623 6.83984L16.3623 6.83984" stroke="black" stroke-width="2"/>
<path d="M253 44L253 54L243 54" stroke="black" stroke-width="2"/>
</svg>
