<svg width="1443" height="812" viewBox="0 0 1443 812" fill="none" xmlns="http://www.w3.org/2000/svg">
<g clip-path="url(#clip0_262_66)">
<path fill-rule="evenodd" clip-rule="evenodd" d="M46.2686 145.569L114.568 77.2694C116.661 75.1763 119.5 74.0001 122.46 74.0001H481.961C488.125 74.0001 493.122 78.9974 493.122 85.1618V140.034C493.122 145.094 497.224 149.195 502.284 149.195H929.82C933.634 149.195 937.048 146.833 938.393 143.265L961.774 81.2254C963.414 76.8782 967.573 74.0001 972.22 74.0001H1047.96C1054.12 74.0001 1059.12 78.9974 1059.12 85.1618V140.034C1059.12 145.094 1063.22 149.195 1068.28 149.195H1389.39C1395.55 149.195 1400.55 154.192 1400.55 160.357V655.09C1400.55 658.049 1399.37 660.889 1397.28 662.982L1325 735.261C1322.91 737.354 1320.07 738.531 1317.11 738.531H125.509C122.549 738.531 119.71 737.356 117.616 735.261L46.2686 663.913C44.1751 661.821 42.9993 658.981 42.9993 656.022V153.461C42.9993 150.501 44.1751 147.662 46.2686 145.569ZM-0.000732422 811.999H1443V0H-0.000732422V811.999Z" fill="#141414"/>
<path d="M42 153.46V656.021C42 658.981 43.1759 661.82 45.2691 663.913L116.617 735.261C118.711 737.355 121.55 738.531 124.51 738.531H1316.11C1319.07 738.531 1321.91 737.354 1324 735.261L1396.28 662.981C1398.37 660.888 1399.55 658.049 1399.55 655.089V160.356C1399.55 154.191 1394.55 149.194 1388.39 149.194H1067.28C1062.22 149.194 1058.12 145.093 1058.12 140.033V85.1605C1058.12 78.9962 1053.12 73.999 1046.96 73.999H971.221C966.575 73.999 962.415 76.8769 960.776 81.2242L937.395 143.264C936.05 146.832 932.635 149.194 928.822 149.194H501.285C496.225 149.194 492.123 145.093 492.123 140.033V85.1605C492.123 78.9962 487.126 73.999 480.962 73.999H121.461C118.501 73.999 115.662 75.175 113.569 77.2682L45.2691 145.568C43.1759 147.661 42 150.5 42 153.46Z" stroke="#FA8BFF" stroke-width="2"/>
</g>
<defs>
<clipPath id="clip0_262_66">
<rect width="1443" height="812" fill="white"/>
</clipPath>
</defs>
</svg>
