<svg width="1920" height="1080" viewBox="0 0 1920 1080" fill="none" xmlns="http://www.w3.org/2000/svg">
<mask id="path-1-inside-1_347_54" fill="white">
<path fill-rule="evenodd" clip-rule="evenodd" d="M0 1074C0 1077.31 2.68631 1080 6.00002 1080H1914C1917.31 1080 1920 1077.31 1920 1074V6C1920 2.68629 1917.31 0 1914 0H227.462C224.825 0 222.497 1.72216 221.725 4.24399L202.87 65.8487C202.098 68.3706 199.77 70.0927 197.132 70.0927H6C2.68629 70.0927 0 72.779 0 76.0927V1074Z"/>
</mask>
<path d="M202.87 65.8487L200.957 65.2634L202.87 65.8487ZM221.725 4.24399L223.638 4.82933L221.725 4.24399ZM1914 1078H6.00002V1082H1914V1078ZM1918 6V1074H1922V6H1918ZM227.462 2H1914V-2H227.462V2ZM204.782 66.4341L223.638 4.82933L219.813 3.65865L200.957 65.2634L204.782 66.4341ZM6 72.0927H197.132V68.0927H6V72.0927ZM2 1074V76.0927H-2V1074H2ZM6 68.0927C1.58172 68.0927 -2 71.6745 -2 76.0927H2C2 73.8836 3.79087 72.0927 6 72.0927V68.0927ZM200.957 65.2634C200.443 66.9446 198.891 68.0927 197.132 68.0927V72.0927C200.649 72.0927 203.753 69.7965 204.782 66.4341L200.957 65.2634ZM227.462 -2C223.946 -2 220.842 0.296208 219.813 3.65865L223.638 4.82933C224.152 3.1481 225.704 2 227.462 2V-2ZM1922 6C1922 1.58173 1918.42 -2 1914 -2V2C1916.21 2 1918 3.79085 1918 6H1922ZM6.00002 1078C3.79087 1078 2 1076.21 2 1074H-2C-2 1078.42 1.58175 1082 6.00002 1082V1078ZM1914 1082C1918.42 1082 1922 1078.42 1922 1074H1918C1918 1076.21 1916.21 1078 1914 1078V1082Z" fill="#FA8BFF" mask="url(#path-1-inside-1_347_54)"/>
</svg>
