<svg width="1356" height="202" viewBox="0 0 1356 202" fill="none" xmlns="http://www.w3.org/2000/svg">
<mask id="path-1-inside-1_196_766" fill="white">
<path fill-rule="evenodd" clip-rule="evenodd" d="M0 192C0 197.523 4.47717 202 10 202H1346C1351.52 202 1356 197.523 1356 192V76.8951C1356 74.2429 1354.95 71.6994 1353.07 69.824L1286.18 2.92892C1284.3 1.05357 1281.76 0 1279.1 0H10C4.47717 0 0 4.47714 0 10V192ZM1355.63 0C1355.31 0 1355.15 0.393585 1355.38 0.623779C1355.61 0.853973 1356 0.690933 1356 0.365402C1356 0.163589 1355.84 0 1355.63 0Z"/>
</mask>
<path fill-rule="evenodd" clip-rule="evenodd" d="M0 192C0 197.523 4.47717 202 10 202H1346C1351.52 202 1356 197.523 1356 192V76.8951C1356 74.2429 1354.95 71.6994 1353.07 69.824L1286.18 2.92892C1284.3 1.05357 1281.76 0 1279.1 0H10C4.47717 0 0 4.47714 0 10V192ZM1355.63 0C1355.31 0 1355.15 0.393585 1355.38 0.623779C1355.61 0.853973 1356 0.690933 1356 0.365402C1356 0.163589 1355.84 0 1355.63 0Z" fill="url(#paint0_linear_196_766)" fill-opacity="0.1"/>
<path d="M1353.07 69.824L1351.66 71.2382L1353.07 69.824ZM1346 200H10V204H1346V200ZM1354 76.8951V192H1358V76.8951H1354ZM1354.49 68.4098L1287.59 1.51471L1284.76 4.34314L1351.66 71.2382L1354.49 68.4098ZM10 2H1279.1V-2H10V2ZM2 192V10H-2V192H2ZM1358 0.365402C1358 -0.940979 1356.94 -2 1355.63 -2V2C1354.73 2 1354 1.26816 1354 0.365402H1358ZM1353.96 2.03799C1355.45 3.52811 1358 2.47275 1358 0.365402H1354C1354 -1.09087 1355.76 -1.82018 1356.79 -0.790436L1353.96 2.03799ZM1356.79 -0.790436C1357.82 0.239304 1357.09 2 1355.63 2V-2C1353.53 -2 1352.47 0.547867 1353.96 2.03799L1356.79 -0.790436ZM10 -2C3.37256 -2 -2 3.37257 -2 10H2C2 5.58173 5.58167 2 10 2V-2ZM1287.59 1.51471C1285.34 -0.735718 1282.29 -2 1279.1 -2V2C1281.23 2 1283.26 2.84285 1284.76 4.34314L1287.59 1.51471ZM1358 76.8951C1358 73.7125 1356.74 70.6602 1354.49 68.4098L1351.66 71.2382C1353.16 72.7385 1354 74.7733 1354 76.8951H1358ZM10 200C5.58179 200 2 196.418 2 192H-2C-2 198.627 3.37256 204 10 204V200ZM1346 204C1352.63 204 1358 198.627 1358 192H1354C1354 196.418 1350.42 200 1346 200V204Z" fill="#FA8BFF" mask="url(#path-1-inside-1_196_766)"/>
<defs>
<linearGradient id="paint0_linear_196_766" x1="0" y1="101" x2="1356" y2="101" gradientUnits="userSpaceOnUse">
<stop stop-color="#FA8BFF"/>
<stop offset="1" stop-color="#965499"/>
</linearGradient>
</defs>
</svg>
