<svg width="324" height="59" viewBox="0 0 324 59" fill="none" xmlns="http://www.w3.org/2000/svg">
<path fill-rule="evenodd" clip-rule="evenodd" d="M0.637451 0H297.799L323.774 22.6984V58.9369H20.9474L0.637451 41.189V0Z" fill="white"/>
<path d="M60.8303 28.1344C62.0303 28.8744 62.8103 30.0344 62.8103 31.6544C62.8103 34.0144 61.4303 35.7344 58.2503 35.7344H45.4503V21.7344H57.7703C60.9503 21.7344 61.9303 23.3544 61.9303 25.4144C61.9303 26.3944 61.5303 27.3544 60.8303 28.1344ZM49.0503 24.3344V27.2344H56.4703H56.4903C57.4503 27.2344 58.3303 27.2344 58.3303 25.7744C58.3303 24.3344 57.4503 24.3344 56.4703 24.3344H49.0503ZM57.3703 32.9544C58.3303 32.9544 59.2103 32.9544 59.2103 31.4744C59.2103 29.9944 58.3303 29.9944 57.3703 29.9944H49.0503V32.9544H57.3703ZM83.4097 28.7144C83.4097 33.5744 80.7497 35.9344 74.6097 35.9344C68.4497 35.9344 65.8097 33.5944 65.8097 28.7144V21.7344H69.4097V28.7144C69.4097 30.6744 69.9497 32.9144 74.6097 32.9144C79.2697 32.9144 79.8097 30.6544 79.8097 28.7144V21.7344H83.4097V28.7144ZM94.0649 31.1344L86.1449 21.7344H90.4849L95.8649 28.1144L101.245 21.7344H105.585L97.6649 31.1344V35.7344H94.0649V31.1344ZM138.527 31.4344C138.527 34.9144 135.467 35.8144 130.867 35.9144V37.7344H128.467V35.9144C123.547 35.7544 120.647 34.6344 120.647 30.9144H124.247C124.247 32.2144 125.167 32.8944 128.467 33.0344V29.9144C123.187 29.5544 121.067 28.5344 121.067 25.5944C121.067 22.7144 123.827 21.6744 128.467 21.5544V19.7344H130.867V21.5744C135.287 21.7944 137.927 23.1744 137.927 26.3144H134.327C134.327 25.0544 133.287 24.5744 130.867 24.4344V27.3744C135.627 27.6544 138.527 28.1744 138.527 31.4344ZM124.667 25.7744C124.667 26.7544 125.347 27.0144 128.467 27.2144V24.3944C125.407 24.4344 124.667 24.7944 124.667 25.7744ZM130.867 33.0744C133.967 32.9944 134.927 32.5744 134.927 31.5544C134.927 30.5144 134.287 30.2544 130.867 30.0344V33.0744ZM157.778 35.7344L156.278 32.7544H147.898L146.398 35.7344H142.438L149.658 21.7344H154.518L161.758 35.7344H157.778ZM149.238 30.0744H154.938L152.098 24.3944L149.238 30.0744ZM168.218 21.7344V35.7344H164.618V21.7344H168.218ZM186.254 21.7344H189.854V35.7344H184.954L175.414 25.2344V35.7344H171.814V21.7344H176.694L186.254 32.2544V21.7344ZM197.062 21.7344V35.7344H193.462V21.7344H197.062ZM222.097 21.7344V35.7344H218.497V26.1344L212.677 35.7344H210.077L204.257 26.1344V35.7344H200.657V21.7344H205.517L211.377 31.6144L217.237 21.7344H222.097ZM240.297 35.7344L238.797 32.7544H230.417L228.917 35.7344H224.957L232.177 21.7344H237.037L244.277 35.7344H240.297ZM231.757 30.0744H237.457L234.617 24.3944L231.757 30.0744ZM260.388 21.7344V24.7544H253.588V35.7344H249.988V24.7544H243.188V21.7344H260.388ZM278.371 24.5944H267.171V27.4344H278.371V30.0344H267.171V32.8744H278.371V35.7344H263.571V21.7344H278.371V24.5944Z" fill="black"/>
<path d="M7 16L7 6L17 6" stroke="black" stroke-width="2"/>
<path d="M318 43L318 53L308 53" stroke="black" stroke-width="2"/>
</svg>
